<svg width="36" height="36" viewBox="0 0 36 36" fill="none" xmlns="http://www.w3.org/2000/svg">
<rect width="36" height="36" fill="#1DA1F2"/>
<path d="M26.543 11.0938C25.8164 11.5156 25.0312 11.8086 24.1875 11.9727C23.4609 11.1992 22.5586 10.8125 21.4805 10.8125C20.4727 10.8125 19.6055 11.1758 18.8789 11.9023C18.1523 12.6289 17.7891 13.4961 17.7891 14.5039C17.7891 14.7852 17.8242 15.0664 17.8945 15.3477C16.3945 15.2773 14.9766 14.9023 13.6406 14.2227C12.3281 13.543 11.2148 12.6289 10.3008 11.4805C9.94922 12.043 9.77344 12.6641 9.77344 13.3438C9.77344 14.6562 10.3242 15.6758 11.4258 16.4023C10.8398 16.4023 10.2891 16.25 9.77344 15.9453V16.0156C9.77344 16.8828 10.043 17.6562 10.582 18.3359C11.1445 19.0156 11.8594 19.4492 12.7266 19.6367C12.3984 19.707 12.0703 19.7422 11.7422 19.7422C11.5078 19.7422 11.2734 19.7188 11.0391 19.6719C11.2969 20.4219 11.7305 21.043 12.3398 21.5352C12.9727 22.0039 13.6875 22.2383 14.4844 22.2383C13.1484 23.293 11.625 23.8203 9.91406 23.8203C9.63281 23.8203 9.33984 23.8086 9.03516 23.7852C10.7695 24.8867 12.6562 25.4375 14.6953 25.4375C16.3359 25.4375 17.8359 25.1211 19.1953 24.4883C20.5547 23.8555 21.6562 23.0352 22.5 22.0273C23.3672 20.9961 24.0352 19.8711 24.5039 18.6523C24.9727 17.4102 25.207 16.168 25.207 14.9258C25.207 14.7617 25.207 14.6094 25.207 14.4688C25.9336 13.9297 26.543 13.2852 27.0352 12.5352C26.3555 12.8398 25.6523 13.0391 24.9258 13.1328C25.7227 12.6406 26.2617 11.9609 26.543 11.0938Z" fill="white"/>
</svg>
