<svg width="34" height="34" viewBox="0 0 34 34" fill="none" xmlns="http://www.w3.org/2000/svg">
<path d="M12.5 32H21.5C29 32 32 29 32 21.5V12.5C32 5 29 2 21.5 2H12.5C5 2 2 5 2 12.5V21.5C2 29 5 32 12.5 32Z" stroke="#F8702C" stroke-width="3" stroke-linecap="round" stroke-linejoin="round"/>
<path d="M24.5 2.66016V17.6302C24.5 20.5852 22.385 21.7402 19.79 20.1802L17.81 18.9952C17.36 18.7252 16.64 18.7252 16.19 18.9952L14.21 20.1802C11.615 21.7252 9.5 20.5852 9.5 17.6302V2.66016" stroke="#F8702C" stroke-width="3" stroke-linecap="round" stroke-linejoin="round"/>
<path d="M12.5 32H21.5C29 32 32 29 32 21.5V12.5C32 5 29 2 21.5 2H12.5C5 2 2 5 2 12.5V21.5C2 29 5 32 12.5 32Z" stroke="#F8702C" stroke-width="3" stroke-linecap="round" stroke-linejoin="round"/>
<path d="M24.5 2.66016V17.6302C24.5 20.5852 22.385 21.7402 19.79 20.1802L17.81 18.9952C17.36 18.7252 16.64 18.7252 16.19 18.9952L14.21 20.1802C11.615 21.7252 9.5 20.5852 9.5 17.6302V2.66016" stroke="#F8702C" stroke-width="3" stroke-linecap="round" stroke-linejoin="round"/>
</svg>
