<svg width="16" height="16" viewBox="0 0 16 16" fill="none" xmlns="http://www.w3.org/2000/svg">
<path d="M10.1 1V8C10.1 8.77 9.47 9.4 8.7 9.4H1V3.8C1 2.253 2.253 1 3.8 1H10.1Z" stroke="#F8702C" stroke-linecap="round" stroke-linejoin="round"/>
<path d="M15 9.4001V11.5001C15 12.6621 14.062 13.6001 12.9 13.6001H12.2C12.2 12.8301 11.57 12.2001 10.8 12.2001C10.03 12.2001 9.4 12.8301 9.4 13.6001H6.6C6.6 12.8301 5.97 12.2001 5.2 12.2001C4.43 12.2001 3.8 12.8301 3.8 13.6001H3.1C1.938 13.6001 1 12.6621 1 11.5001V9.4001H8.7C9.47 9.4001 10.1 8.7701 10.1 8.0001V3.1001H11.388C11.892 3.1001 12.354 3.3731 12.606 3.8071L13.803 5.9001H12.9C12.515 5.9001 12.2 6.2151 12.2 6.6001V8.7001C12.2 9.0851 12.515 9.4001 12.9 9.4001H15Z" stroke="#F8702C" stroke-linecap="round" stroke-linejoin="round"/>
<path d="M5.20005 14.9997C5.97325 14.9997 6.60005 14.3729 6.60005 13.5997C6.60005 12.8265 5.97325 12.1997 5.20005 12.1997C4.42685 12.1997 3.80005 12.8265 3.80005 13.5997C3.80005 14.3729 4.42685 14.9997 5.20005 14.9997Z" stroke="#F8702C" stroke-linecap="round" stroke-linejoin="round"/>
<path d="M10.8 14.9997C11.5732 14.9997 12.2 14.3729 12.2 13.5997C12.2 12.8265 11.5732 12.1997 10.8 12.1997C10.0268 12.1997 9.40002 12.8265 9.40002 13.5997C9.40002 14.3729 10.0268 14.9997 10.8 14.9997Z" stroke="#F8702C" stroke-linecap="round" stroke-linejoin="round"/>
<path d="M15 7.9999V9.3999H12.9C12.515 9.3999 12.2 9.0849 12.2 8.6999V6.5999C12.2 6.2149 12.515 5.8999 12.9 5.8999H13.803L15 7.9999Z" stroke="#F8702C" stroke-linecap="round" stroke-linejoin="round"/>
</svg>
