<svg width="16" height="16" viewBox="0 0 16 16" fill="none" xmlns="http://www.w3.org/2000/svg">
<path d="M15 7.23V2.47C15 1.42 14.552 1 13.439 1H10.611C9.49805 1 9.05005 1.42 9.05005 2.47V7.23C9.05005 8.28 9.49805 8.7 10.611 8.7H13.439C14.552 8.7 15 8.28 15 7.23Z" stroke="#F8702C" stroke-linecap="round" stroke-linejoin="round"/>
<path d="M15 13.5303V12.2703C15 11.2203 14.552 10.8003 13.439 10.8003H10.611C9.49805 10.8003 9.05005 11.2203 9.05005 12.2703V13.5303C9.05005 14.5803 9.49805 15.0003 10.611 15.0003H13.439C14.552 15.0003 15 14.5803 15 13.5303Z" stroke="#F8702C" stroke-linecap="round" stroke-linejoin="round"/>
<path d="M6.95 8.77029V13.5303C6.95 14.5803 6.502 15.0003 5.389 15.0003H2.561C1.448 15.0003 1 14.5803 1 13.5303V8.77029C1 7.72029 1.448 7.30029 2.561 7.30029H5.389C6.502 7.30029 6.95 7.72029 6.95 8.77029Z" stroke="#F8702C" stroke-linecap="round" stroke-linejoin="round"/>
<path d="M6.95 2.47V3.73C6.95 4.78 6.502 5.2 5.389 5.2H2.561C1.448 5.2 1 4.78 1 3.73V2.47C1 1.42 1.448 1 2.561 1H5.389C6.502 1 6.95 1.42 6.95 2.47Z" stroke="#F8702C" stroke-linecap="round" stroke-linejoin="round"/>
</svg>
