<svg width="16" height="16" viewBox="0 0 16 16" fill="none" xmlns="http://www.w3.org/2000/svg">
<path d="M12.1972 7.14298V9.93843C12.1972 10.1201 12.1902 10.2949 12.1692 10.4626C12.008 12.3495 10.8939 13.286 8.84084 13.286H8.56056C8.38539 13.286 8.21721 13.3698 8.1121 13.5096L7.27128 14.6278C6.8999 15.124 6.29729 15.124 5.92592 14.6278L5.08507 13.5096C4.99398 13.3908 4.79079 13.286 4.63664 13.286H4.35636C2.12113 13.286 1 12.7339 1 9.93843V7.14298C1 5.0953 1.94595 3.98411 3.83084 3.82337C3.999 3.8024 4.17418 3.79541 4.35636 3.79541H8.84084C11.0761 3.79541 12.1972 4.9136 12.1972 7.14298Z" stroke="#F8702C" stroke-miterlimit="10" stroke-linecap="round" stroke-linejoin="round"/>
<path d="M15 4.34757V7.14302C15 9.19768 14.054 10.3019 12.1691 10.4626C12.1902 10.2949 12.1972 10.1202 12.1972 9.93848V7.14302C12.1972 4.91365 11.076 3.79546 8.84081 3.79546H4.35634C4.17415 3.79546 3.99898 3.80245 3.83081 3.82342C3.99197 1.94347 5.10609 1 7.15914 1H11.6436C13.8788 1 15 2.11819 15 4.34757Z" stroke="#F8702C" stroke-miterlimit="10" stroke-linecap="round" stroke-linejoin="round"/>
<path d="M9.05496 8.86213H9.06127" stroke="#F8702C" stroke-width="1.5" stroke-linecap="round" stroke-linejoin="round"/>
<path d="M6.60245 8.86213H6.60875" stroke="#F8702C" stroke-width="1.5" stroke-linecap="round" stroke-linejoin="round"/>
<path d="M4.15005 8.86213H4.15636" stroke="#F8702C" stroke-width="1.5" stroke-linecap="round" stroke-linejoin="round"/>
</svg>
