<svg width="34" height="34" viewBox="0 0 34 34" fill="none" xmlns="http://www.w3.org/2000/svg">
<path d="M3.06927 15.8306V22.5655C3.06927 29.3004 5.8663 32.0004 12.8433 32.0004H21.2189C28.1959 32.0004 30.993 29.3004 30.993 22.5655V15.8306" stroke="#F8702C" stroke-width="2.5" stroke-linecap="round" stroke-linejoin="round"/>
<path d="M17.0388 16.9998C19.8824 16.9998 21.9802 14.7649 21.7005 12.0199L20.6749 2H13.4182L12.3771 12.0199C12.0974 14.7649 14.1951 16.9998 17.0388 16.9998Z" stroke="#F8702C" stroke-width="2.5" stroke-linecap="round" stroke-linejoin="round"/>
<path d="M26.844 16.9998C29.9829 16.9998 32.2827 14.5399 31.9719 11.5249L31.5368 7.39994C30.9774 3.49998 29.4235 2 25.3523 2H20.6129L21.7006 12.5149C21.9648 14.9899 24.2801 16.9998 26.844 16.9998Z" stroke="#F8702C" stroke-width="2.5" stroke-linecap="round" stroke-linejoin="round"/>
<path d="M7.15602 16.9998C9.71996 16.9998 12.0353 14.9899 12.2839 12.5149L12.6258 9.19992L13.3716 2H8.63223C4.561 2 3.00709 3.49998 2.44769 7.39994L2.02813 11.5249C1.71735 14.5399 4.01713 16.9998 7.15602 16.9998Z" stroke="#F8702C" stroke-width="2.5" stroke-linecap="round" stroke-linejoin="round"/>
<path d="M17.0388 24.5C14.4438 24.5 13.1541 25.745 13.1541 28.25V31.9999H20.9236V28.25C20.9236 25.745 19.6338 24.5 17.0388 24.5Z" stroke="#F8702C" stroke-width="2.5" stroke-linecap="round" stroke-linejoin="round"/>
</svg>
