<svg width="108" height="48" viewBox="0 0 108 48" fill="none" xmlns="http://www.w3.org/2000/svg">
<path d="M30.6531 27.4221C30.6531 18.9832 23.7912 12.1421 15.3266 12.1421C6.86193 12.1421 0 18.9832 0 27.4221C0 35.8609 6.86193 42.702 15.3266 42.702C23.7912 42.702 30.6531 35.8609 30.6531 27.4221Z" fill="#F8702C" fill-opacity="0.1"/>
<path d="M0.70108 16.5087C0.70108 15.8091 1.26991 15.242 1.97158 15.242C2.67326 15.242 3.24208 15.8091 3.24208 16.5087" fill="#F8702C" fill-opacity="0.1"/>
<path d="M31.4252 37.8307C32.1268 37.8307 32.6957 37.2636 32.6957 36.5641C32.6957 35.8645 32.1268 35.2974 31.4252 35.2974C30.7235 35.2974 30.1547 35.8645 30.1547 36.5641C30.1547 37.2636 30.7235 37.8307 31.4252 37.8307Z" fill="#F8702C" fill-opacity="0.1"/>
<path d="M4.98782 13.7926C5.3265 13.7926 5.60156 14.0668 5.60156 14.4045C5.60156 14.7421 5.3265 15.0163 4.98782 15.0163" fill="#F8702C" fill-opacity="0.1"/>
<path d="M0.0872192 36.2656C0.0872192 35.9279 0.362276 35.6537 0.700952 35.6537C1.03963 35.6537 1.31469 35.9279 1.31469 36.2656" fill="#F8702C" fill-opacity="0.1"/>
<path d="M31.1987 19.3908C31.1987 19.7284 30.9237 20.0026 30.585 20.0026C30.2463 20.0026 29.9713 19.7284 29.9713 19.3908C29.9713 19.0531 30.2463 18.7789 30.585 18.7789C30.9237 18.7789 31.1987 19.0531 31.1987 19.3908Z" fill="#F8702C" fill-opacity="0.1"/>
<path d="M31.1988 39.1869C31.5374 39.1869 31.8125 39.4611 31.8125 39.7988C31.8125 40.1364 31.5374 40.4106 31.1988 40.4106" fill="#F8702C" fill-opacity="0.1"/>
<path d="M16.1211 11.6585C16.46 11.6585 16.7348 11.3846 16.7348 11.0466C16.7348 10.7087 16.46 10.4348 16.1211 10.4348C15.7821 10.4348 15.5074 10.7087 15.5074 11.0466C15.5074 11.3846 15.7821 11.6585 16.1211 11.6585Z" fill="#F8702C" fill-opacity="0.1"/>
<path d="M24.2587 41.5112C24.7077 41.5112 25.0707 41.8731 25.0707 42.3208C25.0707 42.7685 24.7077 43.1304 24.2587 43.1304" fill="#F8702C" fill-opacity="0.1"/>
<path d="M11.3942 18.8214C11.367 18.8459 11.3327 18.8645 11.3127 18.8933C11.0837 19.2269 10.8562 19.5619 10.6301 19.8969C10.3868 20.2577 10.1407 20.6172 9.90458 20.9809C9.78009 21.1736 9.67133 21.3778 9.55542 21.5776C9.4066 21.8321 9.25635 22.0866 9.10896 22.3425C9.03884 22.4647 8.97158 22.5898 8.90576 22.7149C8.75694 22.9996 8.61098 23.2842 8.46359 23.5689C8.45214 23.5905 8.43354 23.6092 8.40921 23.6408C8.38774 23.5804 8.36771 23.5358 8.3534 23.4884C8.15163 22.8098 7.95845 22.1297 7.82966 21.4324C7.73236 20.9062 7.67512 20.3742 7.7066 19.8379C7.73808 19.3074 7.85971 18.7955 8.03 18.2938C8.32907 17.411 8.82992 16.6561 9.44238 15.9689C10.1707 15.1522 11.0165 14.4765 11.9237 13.8741C12.4517 13.5218 12.9755 13.1624 13.4691 12.7612C13.8069 12.4866 14.136 12.1976 14.4193 11.8612C14.5138 11.7491 14.5968 11.6297 14.6468 11.4816C14.6311 11.4931 14.6125 11.5032 14.5996 11.5176C14.1732 12.0007 13.6537 12.363 13.0971 12.6735C12.8739 12.7986 12.6392 12.9022 12.4088 13.0157C12.2771 13.0804 12.1455 13.1466 12.011 13.2084C11.948 13.2371 11.8808 13.2515 11.8121 13.2731C11.7491 13.1724 11.7262 13.0718 11.7076 12.9726C11.659 12.7124 11.5617 12.4679 11.4686 12.2221C11.3814 11.9935 11.2826 11.7706 11.1553 11.5622C11.0451 11.3824 10.9277 11.2056 10.8133 11.0287C10.6129 10.7225 10.4154 10.4163 10.2094 10.1143C10.0105 9.82246 9.896 9.49609 9.8316 9.15247C9.75862 8.7614 9.7901 8.37176 9.91174 7.99219C10.0033 7.70464 10.1063 7.4214 10.2108 7.13816C10.2523 7.02602 10.268 6.91675 10.238 6.80029C10.1593 6.50267 10.0835 6.20362 10.0047 5.90456C9.98185 5.8183 9.95467 5.73491 9.92461 5.63858C9.68278 5.71909 9.46241 5.81686 9.25349 5.93763C9.03168 6.06559 8.82419 6.218 8.63673 6.39484C8.52512 6.4998 8.42352 6.61626 8.32049 6.7284C8.25466 6.80029 8.18454 6.86355 8.08581 6.88512C7.99279 6.90525 7.93985 6.87649 7.91409 6.78304C7.87688 6.65076 7.91981 6.5228 7.97562 6.41209C8.04288 6.27694 8.1316 6.14036 8.24035 6.03827C8.4779 5.81686 8.73118 5.60982 8.98875 5.41141C9.10323 5.32227 9.24204 5.26476 9.37083 5.19431C9.48387 5.13248 9.59692 5.07354 9.71569 5.01027C9.72428 4.90676 9.67849 4.81186 9.65702 4.7141C9.63985 4.63933 9.61695 4.56457 9.59835 4.4898C9.56115 4.35034 9.5683 4.32159 9.67706 4.24395C9.84019 4.12605 10.0133 4.03835 10.2251 4.03835C10.3811 4.03835 10.5013 4.10017 10.5872 4.21807C10.6616 4.32159 10.7202 4.43661 10.7832 4.54875C10.8233 4.6192 10.8462 4.63358 10.9206 4.61201C11.2955 4.50274 11.6704 4.39779 12.0425 4.28564C12.3444 4.19363 12.6263 4.05704 12.8767 3.8615C12.9726 3.78674 13.0613 3.70335 13.1443 3.61565C13.4033 3.34247 13.7053 3.15125 14.0845 3.09518C14.1031 3.0923 14.1202 3.08367 14.1503 3.07217C14.1503 3.03048 14.1517 2.98591 14.1503 2.94133C14.1331 2.61353 14.1274 2.28428 14.0945 1.95791C14.073 1.74655 14.1689 1.60134 14.2991 1.46475C14.4451 1.31091 14.5782 1.14845 14.6855 0.962975C14.7928 0.777503 14.7871 0.604972 14.6511 0.446818C14.6168 0.406561 14.5581 0.382119 14.5052 0.360552C14.4336 0.331797 14.3606 0.30448 14.2848 0.295853C14.0516 0.267098 13.887 0.431003 13.9042 0.665358C13.907 0.709929 13.9185 0.754499 13.9142 0.797632C13.9056 0.889649 13.8498 0.951473 13.7768 0.961537C13.6924 0.971601 13.6194 0.941408 13.5851 0.863769C13.5593 0.807696 13.5421 0.740121 13.5464 0.679735C13.5679 0.38787 13.7382 0.200961 13.9886 0.0773131C14.405 -0.126849 14.8529 0.103193 15.0361 0.419501C15.1248 0.571903 15.1176 0.742997 15.0661 0.906902C14.9803 1.18151 14.8458 1.43025 14.6325 1.62435C14.4894 1.75374 14.425 1.88746 14.4537 2.09449C14.4923 2.37198 14.4766 2.65666 14.4851 2.93846C14.4851 2.97009 14.4923 3.00028 14.4952 3.03335C14.6468 3.05492 14.7914 3.07361 14.9359 3.09805C14.9846 3.10668 15.0375 3.12106 15.079 3.14693C15.2679 3.26483 15.4711 3.36116 15.6442 3.50206C15.783 3.61565 15.9104 3.74648 16.0621 3.83994C16.2567 3.96071 16.4256 4.12749 16.6488 4.19938C16.6731 4.20657 16.696 4.22094 16.7175 4.23388C17.0266 4.40785 17.3586 4.52144 17.6905 4.63646C17.7921 4.67096 17.8923 4.70834 18.0082 4.75004C18.064 4.61489 18.1227 4.49556 18.1656 4.36903C18.21 4.23676 18.2887 4.16487 18.4318 4.16487C18.5663 4.16487 18.7008 4.15193 18.8353 4.15624C18.9112 4.15768 18.9899 4.17206 19.06 4.19794C19.1745 4.23963 19.216 4.31871 19.1959 4.44092C19.1745 4.57463 19.1444 4.70547 19.1187 4.83774C19.1072 4.89957 19.0958 4.96139 19.0843 5.02465C19.2389 5.08216 19.3805 5.13536 19.5222 5.18712C19.7955 5.28489 20.033 5.44017 20.2706 5.60695C20.5139 5.77804 20.6727 6.0124 20.8387 6.24675C20.936 6.38334 20.9231 6.52711 20.8916 6.67233C20.863 6.80604 20.7371 6.84055 20.6469 6.73846C20.531 6.60907 20.418 6.47679 20.2777 6.37471C20.0617 6.21656 19.8499 6.04978 19.6023 5.94194C19.4034 5.85568 19.2045 5.77085 19.0042 5.68746C18.9813 5.6774 18.9541 5.6774 18.9197 5.67165C18.8339 5.89162 18.7995 6.11735 18.7781 6.34883C18.7509 6.63207 18.7781 6.91387 18.7781 7.19567C18.7809 7.58243 18.7824 7.96775 18.7437 8.35307C18.7352 8.44221 18.7208 8.53135 18.7008 8.61906C18.6264 8.94399 18.5591 9.27324 18.4661 9.59386C18.4003 9.82103 18.2915 10.0353 18.2086 10.2581C18.0783 10.606 17.9495 10.9554 17.8751 11.322C17.8508 11.4414 17.8365 11.565 17.8437 11.6858C17.8637 12.0194 17.8995 12.3529 17.9238 12.6865C17.9352 12.8461 17.9281 13.0085 17.9381 13.1681C17.9696 13.7145 18.0011 14.2608 18.0397 14.8072C18.064 15.1407 18.0969 15.4729 18.1356 15.8036C18.1728 16.1227 18.2143 16.4419 18.2658 16.7597C18.3259 17.1335 18.4075 17.5044 18.4633 17.8782C18.5076 18.1773 18.5806 18.4692 18.6407 18.7639C18.6879 18.9968 18.7495 19.2269 18.8067 19.4569C18.8639 19.6884 18.9226 19.9184 18.9813 20.1485C19.0385 20.3728 19.0929 20.5971 19.1587 20.8185C19.2517 21.1319 19.3562 21.4425 19.4521 21.7545C19.4707 21.8148 19.475 21.881 19.495 21.9414C19.5522 22.1182 19.6123 22.2936 19.6724 22.469C19.7712 22.7537 19.8671 23.0413 19.9715 23.3231C20.066 23.5761 20.169 23.8248 20.2706 24.075C20.4151 24.433 20.5596 24.7896 20.7085 25.1461C20.7872 25.3359 20.873 25.5228 20.9575 25.7112C21.0805 25.9858 21.2036 26.2618 21.3309 26.535C21.4454 26.778 21.5685 27.0181 21.6873 27.2611C21.7946 27.4796 21.8976 27.701 22.0092 27.9167C22.0922 28.0749 22.1852 28.2287 22.274 28.384C22.3727 28.5565 22.4714 28.729 22.5702 28.903C22.6145 28.9806 22.656 29.0612 22.7018 29.1388C22.8149 29.3329 22.9508 29.5126 23.0324 29.7254C23.0653 29.8131 23.1368 29.8864 23.1869 29.9684C23.237 30.0503 23.2842 30.1337 23.3315 30.2171C23.3415 30.2344 23.3458 30.2545 23.3558 30.2689C23.4946 30.4774 23.6334 30.6844 23.7751 30.8914C23.8724 31.0338 23.9926 31.1646 24.067 31.3184C24.15 31.4895 24.2773 31.6247 24.3832 31.7757C24.5349 31.9913 24.6937 32.2012 24.8554 32.4097C25.0086 32.6067 25.1703 32.7965 25.3277 32.9891C25.4622 33.153 25.5953 33.3169 25.7283 33.4823C25.86 33.6476 25.9888 33.8144 26.1419 33.9625C26.2564 34.0732 26.3537 34.2012 26.4596 34.3205C26.4853 34.3492 26.5082 34.3852 26.5397 34.4024C26.7157 34.4973 26.8145 34.6684 26.9432 34.8108C26.9776 34.8496 27.0091 34.8913 27.0491 34.9215C27.2423 35.0638 27.3826 35.2594 27.5586 35.4175C27.7346 35.5757 27.8777 35.7669 28.0709 35.9078C28.1725 35.9825 28.2555 36.0818 28.3485 36.1709C28.3571 36.1795 28.3656 36.191 28.3771 36.1968C28.6232 36.3219 28.7763 36.5562 28.991 36.7172C29.011 36.7331 29.0268 36.7546 29.0482 36.769C29.2672 36.9243 29.4861 37.0796 29.705 37.2348C29.7308 37.2535 29.7608 37.2679 29.7823 37.2909C29.9526 37.4692 30.1758 37.5756 30.3661 37.7251C30.5994 37.9077 30.8627 38.0429 31.1017 38.2154C31.2991 38.3563 31.5052 38.4857 31.7156 38.6065C31.9817 38.7589 32.2579 38.8926 32.5269 39.0407C32.6843 39.1269 32.8346 39.2247 32.9877 39.3167C33.0149 39.3325 33.0392 39.3613 33.0678 39.3685C33.2839 39.4217 33.4585 39.5583 33.6545 39.6517C33.7404 39.6934 33.8305 39.725 33.9178 39.7653C34.1439 39.8703 34.3672 39.981 34.5947 40.083C34.775 40.1636 34.9553 40.2484 35.1528 40.2843C35.2029 40.293 35.2587 40.303 35.2973 40.3332C35.4046 40.4166 35.5334 40.4267 35.655 40.4612C35.8082 40.5043 35.9656 40.5388 36.0958 40.6395C36.1244 40.6625 36.1645 40.674 36.2017 40.6826C36.3577 40.7185 36.5136 40.7502 36.6682 40.7875C36.8113 40.8235 36.9587 40.8508 37.0917 40.9098C37.2134 40.963 37.3393 40.9687 37.4624 41.0003C37.5926 41.0334 37.7228 41.0622 37.8545 41.0924C37.9847 41.1225 38.1135 41.1542 38.2609 41.1901C38.1135 41.262 37.9747 41.331 37.8344 41.3986C37.3608 41.6272 36.8714 41.8098 36.3763 41.9881C35.7781 42.2037 35.1657 42.359 34.5432 42.4784C34.2928 42.5258 34.0366 42.5431 33.7833 42.5732C33.7204 42.5804 33.6574 42.5948 33.5944 42.6006C33.4428 42.6135 33.2911 42.6264 33.1394 42.6351C32.9805 42.6437 32.8203 42.6581 32.6614 42.6538C32.4454 42.648 32.2278 42.625 32.0118 42.6092C31.986 42.6078 31.9603 42.6006 31.9359 42.6006C31.4465 42.6006 30.9672 42.5129 30.4906 42.4151C30.1858 42.3533 29.8825 42.2728 29.5805 42.1966C29.333 42.1347 29.0954 42.0427 28.8579 41.9507C28.43 41.7839 28.005 41.6099 27.5972 41.3943C27.3711 41.2749 27.1321 41.1801 26.9046 41.0636C26.6957 40.9558 26.4939 40.8336 26.2893 40.7157C26.129 40.6236 25.9802 40.5072 25.8199 40.4195C25.6496 40.3275 25.5108 40.1937 25.3377 40.1089C25.2933 40.0874 25.2618 40.0399 25.2218 40.0097C25.1617 39.9637 25.0973 39.922 25.0372 39.876C24.9012 39.771 24.7538 39.6862 24.6379 39.5525C24.5549 39.4591 24.429 39.4044 24.3417 39.3138C24.253 39.2218 24.1772 39.1197 24.0512 39.0752C24.0355 39.0507 24.0212 39.0263 24.0054 39.0033C23.9969 39.0105 23.9897 39.0191 23.9811 39.0263C24.004 39.0421 24.0283 39.0579 24.0512 39.0752C24.1371 39.1931 24.2172 39.3153 24.3117 39.4274C24.4476 39.5885 24.5921 39.7437 24.7381 39.8976C24.9098 40.0787 25.0815 40.2584 25.2604 40.4324C25.4207 40.5891 25.5838 40.7415 25.7541 40.8853C25.9931 41.088 26.2392 41.2821 26.4839 41.4791C26.6585 41.62 26.8474 41.7437 27.0191 41.8831C27.2695 42.0873 27.5471 42.2426 27.8119 42.4223C28.141 42.6451 28.4858 42.8421 28.8379 43.0261C29.1384 43.1829 29.4417 43.3381 29.7508 43.4776C30.1529 43.6588 30.5579 43.8327 30.9672 43.9966C31.4952 44.208 32.0275 44.4093 32.5756 44.5588C33.0263 44.681 33.4828 44.7831 33.9479 44.8334C34.1511 44.855 34.3514 44.901 34.5561 44.9226C34.9238 44.9614 35.293 44.9901 35.6736 45.0246C35.6522 45.0491 35.6336 45.0807 35.6078 45.1008C35.4003 45.2518 35.1843 45.3884 34.9539 45.502C34.8222 45.5667 34.6992 45.6486 34.5704 45.7191C34.4416 45.7895 34.3099 45.8571 34.1797 45.9247C34.0151 46.0095 33.8434 46.0814 33.686 46.182C33.5858 46.2467 33.4642 46.2798 33.3512 46.3244C33.0306 46.4523 32.7144 46.5932 32.3881 46.7025C32.1105 46.796 31.82 46.852 31.5353 46.9239C31.4923 46.9354 31.4465 46.9412 31.4036 46.9541C31.1131 47.0404 30.8155 47.0749 30.515 47.0907C30.4449 47.095 30.3762 47.1137 30.306 47.1238C30.2116 47.1367 30.1157 47.1453 30.0213 47.1583C29.9583 47.1655 29.8968 47.177 29.8338 47.1856C29.8023 47.1899 29.7709 47.1971 29.7394 47.1971C29.5662 47.1985 29.3945 47.2028 29.2214 47.1971C29.0296 47.1928 28.8393 47.1798 28.6475 47.1698C28.6289 47.1698 28.6089 47.1626 28.5903 47.1655C28.3184 47.1942 28.0565 47.1209 27.789 47.0936C27.7704 47.0921 27.7503 47.0864 27.7317 47.0864C27.4741 47.0964 27.2194 47.0432 26.9719 46.9944C26.6857 46.9383 26.3923 46.8908 26.1233 46.76C26.0102 46.7054 25.8843 46.6752 25.767 46.6292C25.4937 46.5199 25.2203 46.4106 24.9499 46.2956C24.7553 46.2137 24.5635 46.1245 24.3732 46.0339C24.0441 45.8758 23.735 45.6817 23.4187 45.5005C23.2012 45.3769 22.9952 45.2403 22.792 45.0922C22.5659 44.9269 22.3198 44.786 22.098 44.6163C21.6916 44.3072 21.2852 43.9981 20.9074 43.6516C20.6384 43.4043 20.3879 43.1426 20.1361 42.8781C19.8299 42.5589 19.5422 42.2224 19.2618 41.8817C19.0586 41.6344 18.8611 41.3813 18.6722 41.1211C18.4647 40.8364 18.2715 40.5417 18.0712 40.2513C18.0612 40.2369 18.044 40.2268 18.0125 40.1981C18.0268 40.2613 18.0325 40.3045 18.0483 40.3447C18.1699 40.6553 18.2873 40.9658 18.4175 41.2721C18.5262 41.5266 18.6507 41.7724 18.7666 42.0226C18.977 42.4769 19.2188 42.9126 19.4692 43.3468C19.6424 43.6473 19.827 43.9391 20.0102 44.2324C20.1246 44.4165 20.2377 44.6034 20.3736 44.7745C20.5325 44.9743 20.6684 45.1928 20.8258 45.3941C21.0304 45.6572 21.2379 45.9189 21.4612 46.1677C21.8046 46.5501 22.1581 46.9225 22.5129 47.2934C22.709 47.4961 22.9193 47.6859 23.1225 47.8815C23.154 47.9117 23.1812 47.9433 23.2327 47.9994C23.1726 47.9994 23.1426 48.0008 23.1139 47.9994C22.3212 47.9361 21.5284 47.8771 20.7528 47.6888C19.9043 47.4832 19.0786 47.2057 18.2858 46.8348C17.6576 46.54 17.0523 46.2036 16.4842 45.8025C15.9419 45.42 15.4425 44.9872 14.9688 44.5229C14.4494 44.0139 13.9657 43.4718 13.5421 42.8795C13.1085 42.2699 12.7394 41.6229 12.4202 40.9471C12.0983 40.2656 11.8221 39.5654 11.5931 38.848C11.3298 38.0199 11.1195 37.1773 10.9792 36.3175C10.942 36.0889 10.932 35.8575 10.9163 35.626C10.892 35.2996 10.8648 34.9732 10.8548 34.6454C10.8433 34.273 10.8476 33.9007 10.8462 33.5283C10.8462 33.3874 10.8462 33.245 10.8462 33.0768C10.7718 33.1617 10.7632 33.2479 10.7474 33.3256C10.6916 33.616 10.6387 33.9064 10.5929 34.1983C10.5213 34.6612 10.4569 35.1271 10.3897 35.59C10.3496 35.869 10.311 36.1493 10.2752 36.4297C10.2566 36.5763 10.2452 36.7244 10.2337 36.8711C10.1851 37.4735 10.1407 38.0774 10.1364 38.6812C10.1335 39.1427 10.1436 39.6057 10.1536 40.0672C10.1607 40.4152 10.1779 40.7617 10.1893 41.1082C10.1908 41.1657 10.1893 41.2232 10.1893 41.2807C10.0835 41.308 10.0377 41.2448 10.0005 41.1757C9.93892 41.0622 9.88455 40.9457 9.82731 40.8321C9.68707 40.5575 9.54397 40.2858 9.4066 40.0097C9.32647 39.8501 9.25205 39.6862 9.17621 39.5238C9.09465 39.3498 9.01165 39.1772 8.93008 39.0033C8.91434 38.9688 8.89717 38.9328 8.88286 38.8969C8.68825 38.408 8.49507 37.9192 8.34768 37.4131C8.15306 36.7446 7.99852 36.0688 7.88547 35.3816C7.77958 34.7331 7.70087 34.0804 7.67082 33.4248C7.65079 32.9676 7.64936 32.5104 7.65508 32.0531C7.66081 31.5643 7.67512 31.074 7.70374 30.5852C7.77242 29.4134 7.9098 28.2517 8.1688 27.1058C8.4135 26.0189 8.72259 24.9492 9.07748 23.8938C9.20769 23.5042 9.34936 23.1189 9.50677 22.7393C9.70138 22.272 9.88884 21.8019 10.1121 21.3461C10.268 21.0298 10.4097 20.7063 10.5614 20.3886C10.6244 20.2549 10.6959 20.1269 10.766 19.9975C10.9621 19.6366 11.1467 19.27 11.3613 18.9206C11.3799 18.8919 11.3771 18.8487 11.3842 18.8128C11.4372 18.7927 11.4629 18.7538 11.4615 18.6963C11.4729 18.6848 11.4844 18.6748 11.4958 18.6633C11.4887 18.6575 11.483 18.6532 11.4758 18.6474C11.4729 18.6647 11.4701 18.6834 11.4658 18.7006C11.4143 18.7208 11.3899 18.761 11.3885 18.8157L11.3942 18.8214ZM11.0494 5.27051C11.1023 5.42723 11.1467 5.56669 11.1953 5.70615C11.2755 5.93763 11.357 6.16767 11.4357 6.39915C11.4658 6.48686 11.5073 6.56018 11.5989 6.599C11.7334 6.65651 11.8636 6.72552 11.9995 6.7816C12.2528 6.88655 12.5061 6.99151 12.7651 7.08353C12.934 7.14248 13.11 7.17842 13.2846 7.22299C13.3776 7.24743 13.4691 7.27475 13.5636 7.28769C13.7596 7.31645 13.9571 7.34089 14.1546 7.36102C14.3506 7.37971 14.5495 7.41134 14.7456 7.40127C15.0003 7.3869 15.2521 7.33226 15.5069 7.30351C16.0277 7.24312 16.52 7.09072 16.9908 6.86499C17.2527 6.7399 17.453 6.54868 17.5832 6.28413C17.712 6.02246 17.7793 5.7421 17.8522 5.46173C17.8608 5.42723 17.8594 5.38841 17.8623 5.3424C17.7821 5.31796 17.7091 5.29495 17.6362 5.27626C17.5303 5.24894 17.4215 5.23313 17.3199 5.19862C16.8548 5.03903 16.3783 4.91682 15.9261 4.71553C15.6056 4.5732 15.2736 4.4553 14.9445 4.33021C14.85 4.29427 14.7499 4.26264 14.6483 4.25257C14.4966 4.23676 14.342 4.23388 14.1904 4.2382C14.116 4.23963 14.0358 4.25689 13.97 4.29139C13.7496 4.40929 13.535 4.5315 13.2888 4.5962C13.0613 4.65659 12.8452 4.75435 12.6206 4.82624C12.4202 4.8895 12.2142 4.93982 12.0124 4.99733C11.699 5.08648 11.3871 5.17706 11.0508 5.27339L11.0494 5.27051ZM11.6003 18.5195L11.6089 18.5037H11.5974L11.6003 18.5195Z" fill="#F8702C"/>
<path d="M32.1689 12.3857L31.5098 12.3564C30.377 12.3564 29.2588 12.498 28.1553 12.7812C27.0615 13.0645 26.1143 13.4307 25.3135 13.8799C24.5127 14.3193 23.8633 14.8223 23.3652 15.3887C22.877 15.9453 22.6328 16.4922 22.6328 17.0293C22.6328 18.2207 23.4141 19.1631 24.9766 19.8564C24.9766 20.2666 24.9277 20.75 24.8301 21.3066C24.7324 21.8535 24.6396 22.1855 24.5518 22.3027C22.999 21.668 21.8369 20.8965 21.0654 19.9883C20.3037 19.0801 19.9229 18.123 19.9229 17.1172C19.9229 15.291 20.9141 13.709 22.8965 12.3711C24.8789 11.0234 27.5498 10.208 30.9092 9.9248C32.4521 9.81738 33.9854 9.76367 35.5088 9.76367C37.0322 9.76367 38.2383 9.76855 39.127 9.77832C40.0156 9.78809 40.6748 9.79297 41.1045 9.79297L39.0391 12.8838C38.1211 12.8838 37.0762 12.8203 35.9043 12.6934C34.7324 12.5566 33.9268 12.4736 33.4873 12.4443C33.2822 13.5186 33.0137 14.9883 32.6816 16.8535C32.3496 18.7188 32.1396 19.8857 32.0518 20.3545C32.8818 20.2568 33.7314 20.208 34.6006 20.208C35.4795 20.208 36.4902 20.2373 37.6328 20.2959C37.9941 20.2959 38.1748 20.4668 38.1748 20.8086C38.1748 21.1504 38.0186 21.5166 37.7061 21.9072C37.4033 22.2979 37.0664 22.4932 36.6953 22.4932C34.4004 22.4932 32.7012 22.542 31.5977 22.6396C30.8848 26.0967 30.084 28.6699 29.1953 30.3594C28.4238 31.8242 27.5596 32.8789 26.6025 33.5234C25.4893 34.2656 24.1855 34.6367 22.6914 34.6367C20.8652 34.6367 19.6299 33.8945 18.9854 32.4102C18.8193 32.0293 18.7363 31.6533 18.7363 31.2822C18.7363 29.7588 19.7764 28.9971 21.8564 28.9971C21.749 29.583 21.6953 30.2324 21.6953 30.9453C21.6953 31.6484 21.8125 32.1904 22.0469 32.5713C22.2812 32.9521 22.6719 33.1523 23.2188 33.1719C23.7656 33.1914 24.2734 32.9277 24.7422 32.3809C25.2109 31.834 25.6504 31.0479 26.0605 30.0225C26.7539 28.2842 27.4424 26.0137 28.126 23.2109L26.8662 23.5771C26.8174 23.5771 26.7295 23.582 26.6025 23.5918C26.4756 23.5918 26.3438 23.5381 26.207 23.4307C26.0801 23.3232 26.0166 23.1475 26.0166 22.9033C26.0166 22.6592 26.0605 22.4443 26.1484 22.2588C26.2754 22.0049 26.5342 21.7949 26.9248 21.6289C27.3154 21.4531 27.8818 21.248 28.624 21.0137C28.7705 20.4082 28.8975 19.8564 29.0049 19.3584C29.1221 18.8506 29.2246 18.4062 29.3125 18.0254C29.4004 17.6445 29.4736 17.3418 29.5322 17.1172C29.5908 16.8926 29.6543 16.6289 29.7227 16.3262C29.8008 16.0234 29.8691 15.7793 29.9277 15.5938C29.9863 15.3984 30.0498 15.1982 30.1182 14.9932C30.2549 14.5928 30.377 14.2998 30.4844 14.1143C31.002 13.3428 31.5635 12.7666 32.1689 12.3857ZM39.625 32.4248C38.4531 32.4248 37.7305 31.5996 37.457 29.9492C37.3984 29.5488 37.3691 29.1338 37.3691 28.7041C37.3691 27.6396 37.6328 26.5654 38.1602 25.4814C38.6875 24.3975 39.3809 23.4307 40.2402 22.5811C41.1094 21.7314 42.1445 21.0381 43.3457 20.501C44.5566 19.9639 45.792 19.6953 47.0518 19.6953C47.667 19.6953 48.4873 19.8564 49.5127 20.1787C49.5029 20.2471 49.4053 20.6963 49.2197 21.5264C49.0342 22.3467 48.8486 23.1865 48.6631 24.0459C48.1553 26.3994 47.9014 27.8594 47.9014 28.4258C47.9014 28.9922 48.0479 29.2754 48.3408 29.2754C48.9854 29.2754 50.4795 28.0352 52.8232 25.5547V27.1953C51.3389 28.7285 49.9229 29.9834 48.5752 30.96C47.2373 31.9365 46.3438 32.4248 45.8945 32.4248C45.1523 32.4248 44.7812 31.7852 44.7812 30.5059C44.7812 30.0859 44.8203 29.6123 44.8984 29.085C44.1953 30.0029 43.375 30.7891 42.4375 31.4434C41.5098 32.0977 40.5723 32.4248 39.625 32.4248ZM40.4893 27.8838C40.4893 29.3486 40.9678 30.0811 41.9248 30.0811C42.335 30.0811 42.8379 29.8662 43.4336 29.4365C44.0391 29.0068 44.5859 28.5332 45.0742 28.0156L46.7588 20.8086C45.7041 20.8086 44.6836 21.1846 43.6973 21.9365C42.7109 22.6885 41.9297 23.6113 41.3535 24.7051C40.7773 25.7988 40.4893 26.8584 40.4893 27.8838ZM56.002 31.8975C55.6699 32.0342 55.3037 32.1562 54.9033 32.2637C54.5127 32.3711 54.1172 32.4248 53.7168 32.4248C53.3262 32.4248 52.9111 32.3857 52.4717 32.3076C52.042 32.2295 51.6172 32.1025 51.1973 31.9268C50.2402 31.5361 49.7617 30.8623 49.7617 29.9053C49.7617 29.5244 49.9033 29.0898 50.1865 28.6016C50.4697 28.1133 50.7773 27.6836 51.1094 27.3125C51.4512 26.9414 51.8516 26.5166 52.3105 26.0381C52.7695 25.5596 53.082 25.2178 53.248 25.0127C52.9844 24.3584 52.8525 23.6455 52.8525 22.874C52.8525 21.7314 53.2041 20.7891 53.9072 20.0469C54.6104 19.2949 55.6602 18.9189 57.0566 18.9189C57.6719 18.9189 57.9795 19.0898 57.9795 19.4316C57.9795 20.0371 57.7158 20.5107 57.1885 20.8525C56.6709 21.1846 56.1143 21.3506 55.5186 21.3506C55.8506 22.3564 56.4121 23.2598 57.2031 24.0605C57.4961 24.373 57.7793 24.6709 58.0527 24.9541C58.6875 25.5986 59.0049 26.1553 59.0049 26.624C59.0049 27.3467 58.6631 28.1768 57.9795 29.1143L62.3301 25.5547V27.166C62.2129 27.2637 61.9199 27.5176 61.4512 27.9277C60.9922 28.3379 60.6553 28.6357 60.4404 28.8213C60.2354 28.9971 59.8936 29.2754 59.415 29.6562C58.9463 30.0371 58.5654 30.3301 58.2725 30.5352C57.9893 30.7305 57.623 30.9697 57.1738 31.2529C56.7246 31.5361 56.334 31.751 56.002 31.8975ZM53.8779 26.1553C53.7998 26.2432 53.502 26.5215 52.9844 26.9902C51.832 28.0156 51.2559 28.8066 51.2559 29.3633C51.2559 29.9102 51.5391 30.374 52.1055 30.7549C52.6719 31.126 53.2822 31.3115 53.9365 31.3115C54.5908 31.3115 55.1182 31.2041 55.5186 30.9893C55.9189 30.7646 56.1191 30.4814 56.1191 30.1396C56.1191 29.7979 56.0752 29.4902 55.9873 29.2168C55.8994 28.9434 55.7578 28.6602 55.5625 28.3672C55.377 28.0645 55.2109 27.8203 55.0645 27.6348C54.9277 27.4395 54.7178 27.1758 54.4346 26.8438C54.1514 26.502 53.9658 26.2725 53.8779 26.1553ZM69.2148 10.6426L65.377 24.5293C66.0996 23.1914 67.0469 22.0537 68.2188 21.1162C69.3906 20.1689 70.5332 19.6953 71.6465 19.6953C72.6035 19.6953 73.082 20.2666 73.082 21.4092C73.082 21.8193 72.7646 22.9424 72.1299 24.7783C71.5049 26.6045 71.1924 27.874 71.1924 28.5869C71.1924 28.8799 71.2852 29.0264 71.4707 29.0264C71.5977 29.0264 72.1592 28.5234 73.1553 27.5176C74.1611 26.502 74.8594 25.8281 75.25 25.4961V27.1367C72.1738 30.6621 70.1621 32.4248 69.2148 32.4248C68.5898 32.4248 68.2773 32.0537 68.2773 31.3115C68.2773 31.2041 68.2969 31.0186 68.3359 30.7549C68.375 30.4814 68.5312 29.8809 68.8047 28.9531C69.5957 26.3164 69.9912 24.4121 69.9912 23.2402C69.9912 22.6836 69.7129 22.4053 69.1562 22.4053C68.2969 22.4053 67.3887 23.0352 66.4316 24.2949C65.4844 25.5449 64.8398 26.8096 64.498 28.0889C64.166 29.3584 63.8975 30.2617 63.6924 30.7988C63.4873 31.3359 63.2285 31.7363 62.916 32H60.6309C60.7969 30.7891 61.9492 26.2383 64.0879 18.3477L65.1572 14.3633C65.6162 12.6348 66.0459 11.541 66.4463 11.082C66.6807 10.8086 66.9883 10.6572 67.3691 10.6279C67.75 10.5986 68.126 10.584 68.4971 10.584C68.8779 10.584 69.1172 10.6035 69.2148 10.6426ZM76.7881 29.085C76.7881 29.7295 76.959 30.0518 77.3008 30.0518C77.5156 30.0518 78.1895 29.4951 79.3223 28.3818C80.4648 27.2588 81.373 26.3262 82.0469 25.584V27.2246C80.123 29.1191 78.834 30.3398 78.1797 30.8867C76.9883 31.873 75.9678 32.3857 75.1182 32.4248C74.6885 32.4248 74.3662 32.2344 74.1514 31.8535C73.9365 31.4629 73.8291 30.9648 73.8291 30.3594C73.8291 29.7539 74.1025 28.333 74.6494 26.0967C75.1963 23.8604 75.5576 22.5078 75.7334 22.0391C75.9189 21.5703 76.0703 21.2432 76.1875 21.0576C76.3047 20.8721 76.4512 20.7256 76.627 20.6182C76.8027 20.5107 76.9541 20.4277 77.0811 20.3691C77.2178 20.3008 77.4229 20.252 77.6963 20.2227C78.0771 20.1934 78.5459 20.1787 79.1025 20.1787C77.5596 25.1201 76.7881 28.0889 76.7881 29.085ZM79.3076 16.2822C78.6143 16.2822 78.2676 15.9307 78.2676 15.2275C78.2676 14.7393 78.4482 14.2705 78.8096 13.8213C79.1807 13.3623 79.6152 13.1328 80.1133 13.1328C80.6113 13.1328 80.9824 13.2305 81.2266 13.4258C81.4707 13.6211 81.5928 13.9189 81.5928 14.3193C81.5928 14.71 81.3584 15.1348 80.8896 15.5938C80.4307 16.0527 79.9033 16.2822 79.3076 16.2822ZM90.3086 19.8857C90.3086 20.1689 90.2012 20.3789 89.9863 20.5156C88.043 20.5156 86.5586 21.0723 85.5332 22.1855C84.5762 23.2402 84.0977 24.4268 84.0977 25.7451C84.0977 27.0537 84.3857 28.0986 84.9619 28.8799C85.5479 29.6611 86.2607 30.0518 87.1006 30.0518C87.9404 30.0518 88.751 29.6123 89.5322 28.7334C88.7998 28.2744 88.2334 27.6689 87.833 26.917C87.4424 26.165 87.2471 25.4033 87.2471 24.6318C87.2471 23.8506 87.4814 23.2207 87.9502 22.7422C88.4189 22.2539 89.0977 22.0098 89.9863 22.0098C90.875 22.0098 91.5195 22.249 91.9199 22.7275C92.3301 23.2061 92.5352 23.792 92.5352 24.4854C92.5352 25.9111 92.0811 27.1758 91.1729 28.2793C91.417 28.377 91.627 28.4258 91.8027 28.4258C91.9785 28.4258 92.1592 28.3867 92.3447 28.3086C92.54 28.2207 92.7598 28.0742 93.0039 27.8691C93.248 27.6543 93.4629 27.4541 93.6484 27.2686C93.834 27.083 94.1025 26.8047 94.4541 26.4336C94.8057 26.0625 95.1035 25.7598 95.3477 25.5254V27.1367C94.5371 27.9961 93.8779 28.6064 93.3701 28.9678C92.8721 29.3291 92.3789 29.5098 91.8906 29.5098C91.4121 29.5098 90.9727 29.4414 90.5723 29.3047C89.8203 30.2227 88.9268 30.9746 87.8916 31.5605C86.8662 32.1367 85.8018 32.4248 84.6982 32.4248C83.1162 32.4248 81.9883 31.6777 81.3145 30.1836C80.9336 29.3438 80.7432 28.4014 80.7432 27.3564C80.7432 24.9834 81.583 23.1133 83.2627 21.7461C84.9521 20.3789 87.1934 19.6953 89.9863 19.6953C90.1816 19.6953 90.2891 19.7588 90.3086 19.8857ZM91.1436 24.7637C91.1436 23.8652 90.7432 23.416 89.9424 23.416C89.1514 23.416 88.7559 23.8896 88.7559 24.8369C88.7559 25.335 88.8877 25.8525 89.1514 26.3896C89.4248 26.917 89.791 27.3369 90.25 27.6494C90.4453 27.3271 90.6406 26.8828 90.8359 26.3164C91.041 25.7402 91.1436 25.2227 91.1436 24.7637ZM107.623 25.6133V27.2539C106.07 28.8359 104.693 30.0957 103.492 31.0332C102.301 31.9609 101.505 32.4248 101.104 32.4248C100.372 32.4248 100.006 32.0146 100.006 31.1943C100.006 30.374 100.187 29.3975 100.548 28.2646C100.919 27.1221 101.285 26.0918 101.646 25.1738C102.018 24.2461 102.203 23.626 102.203 23.3135C102.203 23.001 102.145 22.7715 102.027 22.625C101.92 22.4785 101.788 22.4053 101.632 22.4053C101.075 22.4053 100.475 22.7959 99.8301 23.5771C99.1855 24.3486 98.6094 25.2861 98.1016 26.3896C97.0469 28.6748 96.3535 30.5449 96.0215 32H93.2236C93.2334 30.9453 93.5312 29.1973 94.1172 26.7559C94.7031 24.3145 95.2256 22.5127 95.6846 21.3506C95.8701 20.8818 96.1338 20.5693 96.4756 20.4131C96.8271 20.2568 97.2959 20.1787 97.8818 20.1787H98.8633C98.1504 22.6396 97.623 24.4121 97.2812 25.4961C97.9355 24.2754 98.8828 23.0352 100.123 21.7754C100.729 21.1699 101.388 20.6719 102.101 20.2812C102.813 19.8906 103.487 19.6953 104.122 19.6953C105.079 19.6953 105.558 20.2666 105.558 21.4092C105.558 21.9561 105.211 23.2549 104.518 25.3057C103.834 27.3467 103.492 28.4746 103.492 28.6895C103.492 28.8945 103.551 28.9971 103.668 28.9971C103.795 28.9971 103.956 28.9336 104.151 28.8066C104.356 28.6699 104.938 28.1475 105.895 27.2393C106.852 26.3213 107.428 25.7793 107.623 25.6133Z" fill="#1C1C24"/>
</svg>
